<?xml version="1.0" encoding="utf-8"?>
<!-- Generator: Adobe Illustrator 26.0.3, SVG Export Plug-In . SVG Version: 6.00 Build 0)  -->
<svg version="1.1" id="Layer_1" xmlns="http://www.w3.org/2000/svg" xmlns:xlink="http://www.w3.org/1999/xlink" x="0px" y="0px"
	 viewBox="0 0 315.3 332.3" style="enable-background:new 0 0 315.3 332.3;" xml:space="preserve">
<style type="text/css">
	.st0{fill:#787E95;}
	.st1{fill:#FFFFFF;}
	.st2{fill:#C3CFFF;}
	.st3{fill:#BCC1D6;}
	.st4{fill:#FF92C3;}
</style>
<g>
	<path class="st0" d="M298.4,134.4H277v26.2l22.8-26.1C299.3,134.5,298.9,134.4,298.4,134.4z"/>
	<path class="st0" d="M39.1,134.4h-22c-0.6,0-1.1,0.1-1.7,0.2l23.7,27.1V134.4z"/>
	<path class="st1" d="M143.3,243.7c9.3-3.7,19.6-3.7,28.9,0l24,9.5l70.9-81.1V17c0-3.9-3.1-7-7-7h-204c-3.9,0-7,3.1-7,7v156.2l70,80
		L143.3,243.7z M122.6,44.7c4.8-4.8,11.2-7.5,18.1-7.5c6.8,0,13.3,2.6,18.1,7.5l0.1,0.1l0.1-0.1c4.8-4.8,11.2-7.5,18.1-7.5
		s13.3,2.6,18.1,7.5c4.8,4.8,7.5,11.2,7.5,18.1c0,6.8-2.6,13.3-7.5,18.1l-27.7,27.7c-2.2,2.2-5.2,3.5-8.4,3.6H159c0,0,0,0-0.1,0
		c-3.2,0-6.2-1.3-8.5-3.6l-27.7-27.7C112.7,70.8,112.7,54.6,122.6,44.7z M76.1,134.7h160.2c2.8,0,5,2.2,5,5s-2.2,5-5,5H76.1
		c-2.8,0-5-2.2-5-5S73.3,134.7,76.1,134.7z M71.1,166.1c0-2.8,2.2-5,5-5h160.2c2.8,0,5,2.2,5,5s-2.2,5-5,5H76.1
		C73.3,171.1,71.1,168.9,71.1,166.1z M93.4,194.3c0-2.8,2.2-5,5-5h115.5c2.8,0,5,2.2,5,5s-2.2,5-5,5H98.4
		C95.7,199.3,93.4,197.1,93.4,194.3z"/>
	<path class="st2" d="M168.5,253c-6.9-2.7-14.6-2.7-21.5,0l-27.4,10.8h-0.1L10.1,307v8.3c0,3.9,3.1,7,7,7h281.3c3.9,0,7-3.1,7-7V307
		l-24.7-9.8L168.5,253z"/>
	<polygon class="st3" points="10.1,143.8 10.1,296.2 109.2,257.1 	"/>
	<polygon class="st3" points="305.4,296.2 305.4,143.5 206,257 	"/>
	<path d="M311.2,130.2C311.2,130.2,311.1,130.2,311.2,130.2C311.1,130.2,311.1,130.2,311.2,130.2c-0.1-0.1-0.1-0.1-0.2-0.2
		c-0.1-0.1-0.1-0.2-0.2-0.2c-3.2-3.4-7.7-5.4-12.4-5.4H277V17c0-9.4-7.6-17-17-17H56c-9.4,0-17,7.6-17,17v107.4H17
		c-4.8,0-9.4,2.1-12.6,5.7c-0.1,0.1-0.3,0.3-0.4,0.4c-2.6,3.1-4,7-4,11v162.2v11.6c0,9.4,7.6,17,17,17h281.3c9.4,0,17-7.6,17-17
		v-11.7V141.4C315.4,137.3,313.9,133.4,311.2,130.2z M277,134.4h21.3c0.5,0,1,0.1,1.5,0.2L277,160.7V134.4z M49.1,17
		c0-3.9,3.1-7,7-7h204c3.9,0,7,3.1,7,7v155.1l-70.9,81.1l-24-9.5c-9.3-3.7-19.6-3.7-28.9,0l-24.2,9.5l-70-80L49.1,17L49.1,17z
		 M17.1,134.4h22v27.3l-23.7-27.1C15.9,134.5,16.5,134.4,17.1,134.4z M10.1,143.8l99.1,113.4l-99.1,39.1V143.8z M305.4,315.3
		c0,3.9-3.1,7-7,7H17.1c-3.9,0-7-3.1-7-7V307l109.4-43.2h0.1L147,253c6.9-2.7,14.6-2.7,21.5,0l112.1,44.2l24.7,9.8v8.3H305.4z
		 M305.4,296.2L206,257l99.3-113.6v152.8H305.4z"/>
	<path d="M76.1,144.7h160.2c2.8,0,5-2.2,5-5s-2.2-5-5-5H76.1c-2.8,0-5,2.2-5,5S73.3,144.7,76.1,144.7z"/>
	<path d="M241.3,166.1c0-2.8-2.2-5-5-5H76.1c-2.8,0-5,2.2-5,5s2.2,5,5,5h160.2C239.1,171.1,241.3,168.9,241.3,166.1z"/>
	<path d="M218.9,194.3c0-2.8-2.2-5-5-5H98.4c-2.8,0-5,2.2-5,5s2.2,5,5,5h115.5C216.7,199.3,218.9,197.1,218.9,194.3z"/>
	<path class="st4" d="M157.4,101.5c0.5,0.5,1,0.6,1.4,0.6s1-0.1,1.5-0.6L188,73.8c2.9-2.9,4.5-6.8,4.5-11s-1.6-8.1-4.5-11
		s-6.8-4.5-11-4.5s-8.1,1.6-11,4.5l-3.7,3.7c-0.9,0.9-2.2,1.5-3.5,1.5l0,0c-1.3,0-2.6-0.5-3.5-1.5l-3.7-3.7c-2.9-2.9-6.8-4.5-11-4.5
		s-8.1,1.6-11,4.5c-6.1,6.1-6.1,15.9,0,22L157.4,101.5z"/>
	<path d="M150.4,108.5c2.3,2.3,5.3,3.5,8.5,3.6c0,0,0,0,0.1,0h0.1c3.2-0.1,6.2-1.3,8.4-3.6l27.7-27.7c4.8-4.8,7.5-11.2,7.5-18.1
		c0-6.8-2.6-13.3-7.5-18.1c-4.8-4.8-11.2-7.5-18.1-7.5s-13.3,2.6-18.1,7.5l-0.1,0.1l-0.1-0.1c-4.8-4.8-11.2-7.5-18.1-7.5
		c-6.8,0-13.3,2.6-18.1,7.5c-10,10-10,26.2,0,36.1L150.4,108.5z M129.7,51.7c2.9-2.9,6.8-4.5,11-4.5s8.1,1.6,11,4.5l3.7,3.7
		c0.9,0.9,2.2,1.5,3.5,1.5l0,0c1.3,0,2.6-0.5,3.5-1.5l3.7-3.7c2.9-2.9,6.8-4.5,11-4.5s8.1,1.6,11,4.5s4.5,6.8,4.5,11
		s-1.6,8.1-4.5,11l-27.7,27.7c-0.5,0.5-1.1,0.6-1.5,0.6s-1-0.1-1.4-0.6l-27.7-27.7C123.6,67.7,123.6,57.8,129.7,51.7z"/>
</g>
</svg>
